<mxfile host="65bd71144e">
    <diagram id="sM1GVGPP2Z0iR2jW8Oeq" name="第1頁">
        <mxGraphModel dx="1175" dy="825" grid="1" gridSize="10" guides="1" tooltips="1" connect="1" arrows="1" fold="1" page="1" pageScale="1" pageWidth="827" pageHeight="1169" math="0" shadow="0">
            <root>
                <mxCell id="0"/>
                <mxCell id="1" parent="0"/>
                <mxCell id="56" style="edgeStyle=none;html=1;exitX=0;exitY=0.5;exitDx=0;exitDy=0;entryX=1;entryY=0.5;entryDx=0;entryDy=0;" parent="1" source="25" target="30" edge="1">
                    <mxGeometry relative="1" as="geometry"/>
                </mxCell>
                <mxCell id="25" value="現場即時參觀買家 " style="swimlane;whiteSpace=wrap;html=1;" parent="1" vertex="1">
                    <mxGeometry x="270" y="90" width="200" height="200" as="geometry"/>
                </mxCell>
                <mxCell id="62" value="現場即時參觀買家提交申請" style="rounded=0;whiteSpace=wrap;html=1;" parent="25" vertex="1">
                    <mxGeometry x="10" y="30" width="150" height="40" as="geometry"/>
                </mxCell>
                <mxCell id="63" value="&lt;table&gt;&lt;tbody&gt;&lt;tr&gt;&lt;td&gt;推送即時參觀通知&lt;/td&gt;&lt;/tr&gt;&lt;/tbody&gt;&lt;/table&gt;&lt;table&gt;&lt;tbody&gt;&lt;tr&gt;&lt;td&gt;&lt;/td&gt;&lt;/tr&gt;&lt;/tbody&gt;&lt;/table&gt;" style="rounded=0;whiteSpace=wrap;html=1;" parent="25" vertex="1">
                    <mxGeometry x="10" y="70" width="150" height="50" as="geometry"/>
                </mxCell>
                <mxCell id="64" value="重新提交預約申請&lt;br&gt;&lt;table&gt;&lt;tbody&gt;&lt;tr&gt;&lt;td&gt;&lt;br&gt;&lt;/td&gt;&lt;/tr&gt;&lt;/tbody&gt;&lt;/table&gt;" style="rounded=0;whiteSpace=wrap;html=1;" parent="25" vertex="1">
                    <mxGeometry x="10" y="120" width="150" height="50" as="geometry"/>
                </mxCell>
                <mxCell id="55" style="edgeStyle=none;html=1;exitX=0;exitY=0.5;exitDx=0;exitDy=0;entryX=1;entryY=0.5;entryDx=0;entryDy=0;" parent="1" source="26" target="25" edge="1">
                    <mxGeometry relative="1" as="geometry"/>
                </mxCell>
                <mxCell id="26" value="代銷管理者 " style="swimlane;whiteSpace=wrap;html=1;" parent="1" vertex="1">
                    <mxGeometry x="520" y="90" width="200" height="200" as="geometry"/>
                </mxCell>
                <mxCell id="65" value="時程安排" style="rounded=0;whiteSpace=wrap;html=1;" parent="26" vertex="1">
                    <mxGeometry x="10" y="30" width="80" height="40" as="geometry"/>
                </mxCell>
                <mxCell id="80" value="管理者審核申請" style="rounded=0;whiteSpace=wrap;html=1;" parent="26" vertex="1">
                    <mxGeometry x="10" y="70" width="120" height="40" as="geometry"/>
                </mxCell>
                <mxCell id="51" style="edgeStyle=none;html=1;exitX=0;exitY=0.5;exitDx=0;exitDy=0;entryX=1;entryY=0.5;entryDx=0;entryDy=0;" parent="1" source="27" target="28" edge="1">
                    <mxGeometry relative="1" as="geometry"/>
                </mxCell>
                <mxCell id="27" value="系統訪談人員  " style="swimlane;whiteSpace=wrap;html=1;" parent="1" vertex="1">
                    <mxGeometry x="520" y="390" width="200" height="200" as="geometry"/>
                </mxCell>
                <mxCell id="67" value="預約型買家提交申請" style="rounded=0;whiteSpace=wrap;html=1;" parent="27" vertex="1">
                    <mxGeometry x="10" y="30" width="110" height="30" as="geometry"/>
                </mxCell>
                <mxCell id="68" value="現場即時參觀買家提交申請" style="rounded=0;whiteSpace=wrap;html=1;" parent="27" vertex="1">
                    <mxGeometry x="10" y="60" width="155" height="30" as="geometry"/>
                </mxCell>
                <mxCell id="53" style="edgeStyle=none;html=1;exitX=0;exitY=0.5;exitDx=0;exitDy=0;entryX=1;entryY=0.5;entryDx=0;entryDy=0;" parent="1" source="28" target="29" edge="1">
                    <mxGeometry relative="1" as="geometry"/>
                </mxCell>
                <mxCell id="28" value="系統設計者/開發人員 " style="swimlane;whiteSpace=wrap;html=1;" parent="1" vertex="1">
                    <mxGeometry x="270" y="390" width="200" height="200" as="geometry"/>
                </mxCell>
                <mxCell id="69" value="時程安排" style="rounded=0;whiteSpace=wrap;html=1;" parent="28" vertex="1">
                    <mxGeometry x="10" y="30" width="70" height="30" as="geometry"/>
                </mxCell>
                <mxCell id="70" value="推送預約結果通知" style="rounded=0;whiteSpace=wrap;html=1;" parent="28" vertex="1">
                    <mxGeometry x="10" y="60" width="100" height="20" as="geometry"/>
                </mxCell>
                <mxCell id="71" value="&lt;table&gt;&lt;tbody&gt;&lt;tr&gt;&lt;td&gt;推送即時參觀通知&lt;/td&gt;&lt;/tr&gt;&lt;/tbody&gt;&lt;/table&gt;&lt;table&gt;&lt;tbody&gt;&lt;tr&gt;&lt;td&gt;&lt;/td&gt;&lt;/tr&gt;&lt;/tbody&gt;&lt;/table&gt;" style="rounded=0;whiteSpace=wrap;html=1;" parent="28" vertex="1">
                    <mxGeometry x="10" y="80" width="110" height="30" as="geometry"/>
                </mxCell>
                <mxCell id="72" value="重新提交預約申請&lt;br&gt;&lt;table&gt;&lt;tbody&gt;&lt;tr&gt;&lt;td&gt;&lt;br&gt;&lt;/td&gt;&lt;/tr&gt;&lt;/tbody&gt;&lt;/table&gt;" style="rounded=0;whiteSpace=wrap;html=1;" parent="28" vertex="1">
                    <mxGeometry x="10" y="110" width="110" height="40" as="geometry"/>
                </mxCell>
                <mxCell id="54" style="edgeStyle=orthogonalEdgeStyle;html=1;exitX=0.5;exitY=0;exitDx=0;exitDy=0;entryX=0.5;entryY=1;entryDx=0;entryDy=0;" parent="1" source="29" target="26" edge="1">
                    <mxGeometry relative="1" as="geometry"/>
                </mxCell>
                <mxCell id="29" value="接待人員 " style="swimlane;whiteSpace=wrap;html=1;" parent="1" vertex="1">
                    <mxGeometry x="30" y="390" width="200" height="200" as="geometry"/>
                </mxCell>
                <mxCell id="66" value="時程安排" style="rounded=0;whiteSpace=wrap;html=1;" parent="29" vertex="1">
                    <mxGeometry x="10" y="30" width="75" height="30" as="geometry"/>
                </mxCell>
                <mxCell id="30" value="預約型買家 " style="swimlane;whiteSpace=wrap;html=1;" parent="1" vertex="1">
                    <mxGeometry x="30" y="90" width="210" height="200" as="geometry">
                        <mxRectangle x="30" y="90" width="100" height="30" as="alternateBounds"/>
                    </mxGeometry>
                </mxCell>
                <mxCell id="57" value="預約型買家提交申請" style="rounded=0;whiteSpace=wrap;html=1;" parent="30" vertex="1">
                    <mxGeometry x="10" y="30" width="110" height="50" as="geometry"/>
                </mxCell>
                <mxCell id="58" value="推送預約結果通知" style="rounded=0;whiteSpace=wrap;html=1;" parent="30" vertex="1">
                    <mxGeometry x="10" y="80" width="110" height="40" as="geometry"/>
                </mxCell>
                <mxCell id="59" value="&lt;table&gt;&lt;tbody&gt;&lt;tr&gt;&lt;td&gt;推送即時參觀通知&lt;/td&gt;&lt;/tr&gt;&lt;/tbody&gt;&lt;/table&gt;&lt;table&gt;&lt;tbody&gt;&lt;tr&gt;&lt;td&gt;&lt;/td&gt;&lt;/tr&gt;&lt;/tbody&gt;&lt;/table&gt;" style="rounded=0;whiteSpace=wrap;html=1;" parent="30" vertex="1">
                    <mxGeometry x="10" y="120" width="110" height="30" as="geometry"/>
                </mxCell>
                <mxCell id="60" value="重新提交預約申請&lt;br&gt;&lt;table&gt;&lt;tbody&gt;&lt;tr&gt;&lt;td&gt;&lt;br&gt;&lt;/td&gt;&lt;/tr&gt;&lt;/tbody&gt;&lt;/table&gt;" style="rounded=0;whiteSpace=wrap;html=1;" parent="30" vertex="1">
                    <mxGeometry x="10" y="150" width="110" height="40" as="geometry"/>
                </mxCell>
                <mxCell id="50" style="edgeStyle=orthogonalEdgeStyle;html=1;exitX=1;exitY=0.5;exitDx=0;exitDy=0;entryX=0.5;entryY=1;entryDx=0;entryDy=0;" parent="1" source="31" target="27" edge="1">
                    <mxGeometry relative="1" as="geometry"/>
                </mxCell>
                <mxCell id="31" value="Line 用戶 " style="swimlane;whiteSpace=wrap;html=1;" parent="1" vertex="1">
                    <mxGeometry x="270" y="680" width="200" height="200" as="geometry"/>
                </mxCell>
                <mxCell id="74" value="預約型買家提交申請" style="rounded=0;whiteSpace=wrap;html=1;" parent="31" vertex="1">
                    <mxGeometry x="5" y="30" width="110" height="30" as="geometry"/>
                </mxCell>
                <mxCell id="75" value="現場即時參觀買家提交申請" style="rounded=0;whiteSpace=wrap;html=1;" parent="31" vertex="1">
                    <mxGeometry x="5" y="60" width="150" height="30" as="geometry"/>
                </mxCell>
                <mxCell id="77" value="推送預約結果通知" style="rounded=0;whiteSpace=wrap;html=1;" parent="31" vertex="1">
                    <mxGeometry x="5" y="90" width="110" height="30" as="geometry"/>
                </mxCell>
                <mxCell id="78" value="&lt;table&gt;&lt;tbody&gt;&lt;tr&gt;&lt;td&gt;推送即時參觀通知&lt;/td&gt;&lt;/tr&gt;&lt;/tbody&gt;&lt;/table&gt;&lt;table&gt;&lt;tbody&gt;&lt;tr&gt;&lt;td&gt;&lt;/td&gt;&lt;/tr&gt;&lt;/tbody&gt;&lt;/table&gt;" style="rounded=0;whiteSpace=wrap;html=1;" parent="31" vertex="1">
                    <mxGeometry x="5" y="120" width="110" height="30" as="geometry"/>
                </mxCell>
            </root>
        </mxGraphModel>
    </diagram>
</mxfile>